<svg width="16" height="16" viewBox="0 0 16 16" fill="none" xmlns="http://www.w3.org/2000/svg">
<g id="ElectronicDocumentTemplate">
<g id="new">
<path id="Vector" d="M13 15H3V1H11.5L13 2.5V15Z" fill="white"/>
<path id="Vector_2" d="M11.4 0H3C2.73478 0 2.48043 0.105357 2.29289 0.292893C2.10536 0.48043 2 0.734784 2 1V15C2 15.2652 2.10536 15.5196 2.29289 15.7071C2.48043 15.8946 2.73478 16 3 16H13C13.2652 16 13.5196 15.8946 13.7071 15.7071C13.8946 15.5196 14 15.2652 14 15V2.6L11.4 0ZM13 15H3V1H10V3C10 3.26522 10.1054 3.51957 10.2929 3.70711C10.4804 3.89464 10.7348 4 11 4H13V15ZM11 3V1L13 3H11Z" fill="#798288"/>
<path id="Vector_3" d="M11 11V12H5V11H11ZM12 10H4V13H12V10Z" fill="#ADB1B2"/>
<path id="Vector_4" d="M8 3H4V4H8V3Z" fill="#7DA7B5"/>
<path id="Vector_5" d="M12 6H4V7H12V6Z" fill="#ADB1B2"/>
<path id="Vector_6" d="M12 8H4V9H12V8Z" fill="#ADB1B2"/>
</g>
</g>
</svg>
